<svg width="82" height="82" viewBox="0 0 82 82" fill="none" xmlns="http://www.w3.org/2000/svg">
<g id="Group">
<path id="Path" d="M51.0039 71.0128H60.0543C63.7378 71.0128 66.7238 68.0268 66.7238 64.3433V14.3225C66.7238 12.4808 65.2308 10.9878 63.3891 10.9878H57.1965C55.3548 10.9878 53.8618 12.4808 53.8618 14.3225V22.0124" stroke="#0C3A5E" stroke-width="2" stroke-linecap="round" stroke-linejoin="round"/>
<path id="Path_2" fill-rule="evenodd" clip-rule="evenodd" d="M30.2843 44.5083C23.2222 44.6217 17.5566 50.379 17.5566 57.4421C17.5566 64.5051 23.2222 70.2624 30.2843 70.3758C40.8221 70.3758 43.4065 57.4371 49.4457 53.999C44.9453 47.9514 37.8222 44.4233 30.2843 44.5083Z" stroke="#0C3A5E" stroke-width="2" stroke-linecap="round" stroke-linejoin="round"/>
<path id="Path_3" d="M31.8462 56.0332C24.6137 57.2437 18.2399 61.4792 14.3223 67.6781" stroke="#0C3A5E" stroke-width="2" stroke-linecap="round" stroke-linejoin="round"/>
<path id="Path_4" d="M10.9863 36.7118L36.6637 14.7027C39.1596 12.5679 42.8381 12.5679 45.334 14.7027L71.0113 36.7118" stroke="#0C3A5E" stroke-width="2" stroke-linecap="round" stroke-linejoin="round"/>
</g>
</svg>
