<svg width="80" height="80" viewBox="0 0 80 80" fill="none" xmlns="http://www.w3.org/2000/svg">
<g id="Group">
<g id="Group_2">
<path id="Path" d="M60.0007 50V53.3333" stroke="#0C3A5E" stroke-width="2" stroke-linecap="round" stroke-linejoin="round"/>
<path id="Path_2" d="M60.0007 66.6665V69.9998" stroke="#0C3A5E" stroke-width="2" stroke-linecap="round" stroke-linejoin="round"/>
<path id="Path_3" d="M51.3327 54.9998L54.3327 56.6665" stroke="#0C3A5E" stroke-width="2" stroke-linecap="round" stroke-linejoin="round"/>
<path id="Path_4" d="M65.6667 63.3333L68.6667 65" stroke="#0C3A5E" stroke-width="2" stroke-linecap="round" stroke-linejoin="round"/>
<path id="Path_5" d="M51.3327 65L54.3327 63.3333" stroke="#0C3A5E" stroke-width="2" stroke-linecap="round" stroke-linejoin="round"/>
<path id="Path_6" d="M65.6667 56.6665L68.6667 54.9998" stroke="#0C3A5E" stroke-width="2" stroke-linecap="round" stroke-linejoin="round"/>
<path id="Path_7" d="M64.6673 55.3335C67.334 58.0002 67.334 62.0002 64.6673 64.6668C62.0007 67.3335 58.0007 67.3335 55.334 64.6668C52.6673 62.0002 52.6673 58.0002 55.334 55.3335C58.0007 52.6668 62.0007 52.6668 64.6673 55.3335" stroke="#0C3A5E" stroke-width="2" stroke-linecap="round" stroke-linejoin="round"/>
<path id="Path_8" d="M50.0009 17.3335C55.6676 23.0002 55.6676 32.0002 50.0009 37.3335C44.3343 42.6668 35.3343 43.0002 30.0009 37.3335C24.6676 31.6668 24.3343 22.6668 30.0009 17.3335C35.6676 12.0002 44.3343 12.0002 50.0009 17.3335" stroke="#0C3A5E" stroke-width="2" stroke-linecap="round" stroke-linejoin="round"/>
<path id="Path_9" d="M13.334 66.6665C13.334 58.3332 20.0007 51.6665 28.334 51.6665H37.0007" stroke="#0C3A5E" stroke-width="2" stroke-linecap="round" stroke-linejoin="round"/>
</g>
</g>
</svg>
