<svg width="80" height="80" viewBox="0 0 80 80" fill="none" xmlns="http://www.w3.org/2000/svg">
<g id="Group">
<path id="Path" d="M22.5 21.6644C22.4988 21.2045 22.1251 20.8325 21.6652 20.8333C21.2052 20.8342 20.8329 21.2075 20.8333 21.6674C20.8337 22.1274 21.2067 22.5 21.6667 22.5C22.1274 22.499 22.5003 22.1251 22.5 21.6644" stroke="#0C3A5E" stroke-width="2" stroke-linecap="round" stroke-linejoin="round"/>
<path id="Path_2" d="M13.416 29.9165L45.786 62.2865C47.036 63.5367 48.7315 64.239 50.4994 64.239C52.2672 64.239 53.9627 63.5367 55.2127 62.2865L62.2827 55.2165C63.5328 53.9665 64.2352 52.271 64.2352 50.5032C64.2352 48.7353 63.5328 47.0398 62.2827 45.7898L49.8327 33.3332" stroke="#0C3A5E" stroke-width="2" stroke-linecap="round" stroke-linejoin="round"/>
<path id="Path_3" d="M33.3333 49.8332V63.3332C33.3338 65.1014 32.6316 66.7974 31.3812 68.0478C30.1309 69.2981 28.4349 70.0003 26.6667 69.9998H16.6667C14.8984 70.0003 13.2024 69.2981 11.9521 68.0478C10.7017 66.7974 9.99951 65.1014 10 63.3332V21.6665" stroke="#0C3A5E" stroke-width="2" stroke-linecap="round" stroke-linejoin="round"/>
<path id="Path_4" fill-rule="evenodd" clip-rule="evenodd" d="M21.6667 10H63.3333C67.0152 10 70 12.9848 70 16.6667V26.6667C70 30.3486 67.0152 33.3333 63.3333 33.3333H21.6667C15.2233 33.3333 10 28.11 10 21.6667V21.6667C10 15.2233 15.2233 10 21.6667 10Z" stroke="#0C3A5E" stroke-width="2" stroke-linecap="round" stroke-linejoin="round"/>
</g>
</svg>
