<svg width="80" height="80" viewBox="0 0 80 80" fill="none" xmlns="http://www.w3.org/2000/svg">
<g id="Group">
<g id="Group_2">
<path id="Path" d="M69.3085 31.7451C71.9419 34.3785 71.9419 38.6482 69.3085 41.2816C66.675 43.915 62.4054 43.915 59.772 41.2816C57.1385 38.6482 57.1385 34.3785 59.772 31.7451C62.4054 29.1117 66.675 29.1117 69.3085 31.7451" stroke="#0C3A5E" stroke-width="2" stroke-linecap="round" stroke-linejoin="round"/>
<path id="Path_2" d="M47.3427 19.7077C51.3976 23.7626 51.3976 30.337 47.3427 34.392C43.2877 38.4469 36.7134 38.4469 32.6584 34.392C28.6035 30.337 28.6035 23.7627 32.6584 19.7077C36.7133 15.6528 43.2877 15.6528 47.3427 19.7077" stroke="#0C3A5E" stroke-width="2" stroke-linecap="round" stroke-linejoin="round"/>
<path id="Path_3" d="M20.2284 31.7451C22.8618 34.3785 22.8618 38.6482 20.2284 41.2816C17.5949 43.915 13.3253 43.915 10.6919 41.2816C8.05844 38.6482 8.05844 34.3785 10.6919 31.7451C13.3253 29.1117 17.5949 29.1117 20.2284 31.7451" stroke="#0C3A5E" stroke-width="2" stroke-linecap="round" stroke-linejoin="round"/>
<path id="Path_4" d="M76.6674 63.3333V59.68C76.6674 55.0767 72.9374 51.3467 68.3341 51.3467H65.6641" stroke="#0C3A5E" stroke-width="2" stroke-linecap="round" stroke-linejoin="round"/>
<path id="Path_5" d="M3.33398 63.3333V59.68C3.33398 55.0767 7.06398 51.3467 11.6673 51.3467H14.3373" stroke="#0C3A5E" stroke-width="2" stroke-linecap="round" stroke-linejoin="round"/>
<path id="Path_6" d="M57.7978 63.3334V57.9967C57.7978 51.5534 52.5745 46.3301 46.1312 46.3301H33.8678C27.4245 46.3301 22.2012 51.5534 22.2012 57.9967V63.3334" stroke="#0C3A5E" stroke-width="2" stroke-linecap="round" stroke-linejoin="round"/>
</g>
</g>
</svg>
