<svg width="28" height="28" viewBox="0 0 28 28" fill="none" xmlns="http://www.w3.org/2000/svg">
<g id="Group">
<g id="Layer_2">
<path id="Path" d="M19.8327 15.1056V12.8334C19.8327 12.1891 19.3103 11.6667 18.666 11.6667H9.33268C8.68835 11.6667 8.16602 12.1891 8.16602 12.8334V15.1081" stroke="white" stroke-width="1.5" stroke-linecap="round" stroke-linejoin="round"/>
<path id="Path_2" d="M3.5 11.6667L11.9 17.9667C13.1444 18.9001 14.8556 18.9001 16.1 17.9667L24.5 11.6667" stroke="white" stroke-width="1.5" stroke-linecap="round" stroke-linejoin="round"/>
<path id="Path_3" fill-rule="evenodd" clip-rule="evenodd" d="M23.5853 9.93183L16.128 4.22118C14.8723 3.25961 13.1278 3.25961 11.8721 4.22118L4.41467 9.93183C3.8381 10.3734 3.49999 11.0582 3.5 11.7844V21C3.5 22.933 5.067 24.5 7 24.5H21C22.933 24.5 24.5 22.933 24.5 21V11.7843C24.5 11.0581 24.1619 10.3734 23.5853 9.93183Z" stroke="white" stroke-width="1.5" stroke-linecap="round" stroke-linejoin="round"/>
</g>
</g>
</svg>
