<svg width="170" height="60" viewBox="0 0 170 60" fill="none" xmlns="http://www.w3.org/2000/svg">
<g id="logo Brrauf" clip-path="url(#clip0_252_724)">
<g id="Layer_x0020_1">
<g id="_1880332797824">
<path id="Vector" d="M66.5451 41.4329L64.7976 36.0654H63.6134L61.8275 41.4033L60.1096 36.0654H58.7773L61.0671 43.0884H62.4395L64.1764 37.8913L65.8841 43.0884H67.2455L69.536 36.0654H68.3119L66.5451 41.4329Z" fill="white"/>
<path id="Vector_2" d="M79.3057 40.8465C79.0948 41.2243 78.8059 41.5181 78.4375 41.7297C78.0685 41.9403 77.6544 42.0455 77.1929 42.0455C76.7325 42.0455 76.3184 41.9403 75.9494 41.7297C75.5814 41.5182 75.2913 41.2244 75.0815 40.8465C74.8705 40.4684 74.765 40.0455 74.765 39.5775C74.765 39.1095 74.8704 38.6856 75.0815 38.3085C75.2913 37.9304 75.5813 37.6358 75.9494 37.4253C76.3184 37.2147 76.7325 37.1095 77.1929 37.1095C77.6544 37.1095 78.0685 37.2147 78.4375 37.4253C78.8058 37.6358 79.0948 37.9304 79.3057 38.3085C79.5165 38.6856 79.6219 39.1095 79.6219 39.5775C79.6219 40.0455 79.5165 40.4684 79.3057 40.8465ZM79.0985 36.432C78.5328 36.1208 77.8972 35.9648 77.1929 35.9648C76.4889 35.9648 75.8544 36.1208 75.2886 36.432C74.7229 36.7429 74.2784 37.1745 73.9554 37.7257C73.6336 38.278 73.4727 38.8951 73.4727 39.5776C73.4727 40.2598 73.6336 40.8762 73.9554 41.4282C74.2784 41.9804 74.7229 42.412 75.2886 42.7231C75.8544 43.034 76.4889 43.1892 77.1929 43.1892C77.8972 43.1892 78.5328 43.034 79.0985 42.7231C79.6643 42.4119 80.1086 41.9812 80.4307 41.4329C80.7536 40.8847 80.9145 40.2665 80.9145 39.5775C80.9145 38.8885 80.7536 38.2693 80.4307 37.721C80.1085 37.1725 79.6643 36.7428 79.0985 36.4319V36.432Z" fill="white"/>
<path id="Vector_3" d="M91.0712 40.8465C90.8603 41.2243 90.5714 41.5181 90.2023 41.7297C89.8343 41.9403 89.4191 42.0455 88.9587 42.0455C88.4984 42.0455 88.0842 41.9403 87.7152 41.7297C87.3469 41.5182 87.0571 41.2244 86.847 40.8465C86.6362 40.4684 86.5308 40.0455 86.5308 39.5775C86.5308 39.1095 86.6362 38.6856 86.847 38.3085C87.057 37.9304 87.3468 37.6358 87.7152 37.4253C88.0842 37.2147 88.4984 37.1095 88.9587 37.1095C89.4191 37.1095 89.8343 37.2147 90.2023 37.4253C90.5713 37.6358 90.8603 37.9304 91.0712 38.3085C91.2821 38.6856 91.3877 39.1095 91.3877 39.5775C91.3877 40.0455 91.2821 40.4684 91.0712 40.8465ZM90.8641 36.432C90.2983 36.1208 89.663 35.9648 88.9587 35.9648C88.2545 35.9648 87.6199 36.1208 87.0542 36.432C86.4884 36.7429 86.0441 37.1745 85.7213 37.7257C85.3991 38.278 85.2383 38.8951 85.2383 39.5776C85.2383 40.2598 85.3992 40.8762 85.7213 41.4282C86.0442 41.9804 86.4884 42.412 87.0542 42.7231C87.6199 43.034 88.2545 43.1892 88.9587 43.1892C89.663 43.1892 90.2983 43.034 90.8641 42.7231C91.4298 42.4119 91.8742 41.9812 92.1962 41.4329C92.5181 40.8847 92.6801 40.2665 92.6801 39.5775C92.6801 38.8885 92.5181 38.2693 92.1962 37.721C91.8741 37.1725 91.4298 36.7428 90.8641 36.4319V36.432Z" fill="white"/>
<path id="Vector_4" d="M102.684 40.8464C102.477 41.211 102.181 41.4923 101.797 41.6895C101.412 41.8865 100.965 41.9852 100.459 41.9852H98.7811V37.1687H100.459C100.965 37.1687 101.412 37.2683 101.797 37.4655C102.181 37.6628 102.477 37.9441 102.684 38.3086C102.891 38.6731 102.995 39.0952 102.995 39.5776C102.995 40.0588 102.891 40.4817 102.684 40.8465V40.8464ZM102.482 36.5016C101.909 36.2108 101.254 36.0654 100.518 36.0654H97.498V43.0884H100.518C101.254 43.0884 101.909 42.943 102.482 42.6519C103.054 42.3611 103.499 41.9496 103.814 41.4185C104.13 40.8866 104.289 40.273 104.289 39.5775C104.289 38.8817 104.13 38.2683 103.814 37.7361C103.499 37.2042 103.054 36.7927 102.482 36.5016Z" fill="white"/>
<path id="Vector_5" d="M69.5516 28.3424C69.1355 28.6085 68.4551 28.7417 67.5099 28.7417H62.4195V24.9378H67.5099C68.4614 24.9378 69.1422 25.0696 69.5516 25.3357C70.0281 25.6495 70.2662 26.1511 70.2662 26.839C70.2662 27.5348 70.0282 28.0352 69.5516 28.3423V28.3424ZM62.4195 19.3845H67.6801C68.4786 19.3845 69.0454 19.509 69.3803 19.7577C69.7155 20.0065 69.8841 20.4236 69.8841 21.0104C69.8841 21.5825 69.7061 22.0054 69.3504 22.2783C69.035 22.5175 68.4786 22.6361 67.6801 22.6361H62.4195V19.3845ZM71.0099 23.7309C72.2508 23.1309 72.871 22.1492 72.871 20.7856C72.871 19.5655 72.4654 18.6315 71.6539 17.9834C71.2453 17.6563 70.769 17.4246 70.2257 17.2879C69.6827 17.152 68.9654 17.084 68.0728 17.084H58.7773V17.4114C59.0194 17.4793 59.187 17.5674 59.2801 17.6765C59.3742 17.7855 59.4212 17.9464 59.4212 18.1577V29.9684C59.4212 30.1799 59.3742 30.3397 59.2801 30.4488C59.187 30.5578 59.0194 30.6469 58.7773 30.7149V31.0421H68.1633C69.0492 31.0421 69.7919 30.9618 70.3916 30.8021C70.9923 30.6423 71.5204 30.3811 71.9759 30.0203C72.8752 29.2969 73.3241 28.2986 73.3241 27.0231C73.3241 25.4211 72.5532 24.3235 71.0102 23.7311L71.0099 23.7309Z" fill="white"/>
<path id="Vector_6" d="M88.1927 22.9835C87.9112 23.0248 87.4284 23.0448 86.7439 23.0448H82.1158V19.3843H86.7439C87.4415 19.3843 87.9263 19.4025 88.1974 19.4399C88.4694 19.4782 88.7255 19.5644 88.9676 19.7011C89.4767 19.9805 89.7319 20.4847 89.7319 21.2139C89.7319 21.9442 89.4768 22.4484 88.9676 22.7278C88.7322 22.8572 88.4742 22.9423 88.1926 22.9833L88.1927 22.9835ZM88.5231 30.7148V31.0422H93.4846V30.7148C93.1691 30.6939 92.9028 30.5864 92.6843 30.3922C92.4668 30.1979 92.1223 29.7637 91.6534 29.0887L88.9875 25.2334C91.4757 24.8449 92.7201 23.5119 92.7201 21.2353C92.7201 20.5675 92.596 19.9394 92.3473 19.3529C92.0858 18.7461 91.6903 18.2657 91.1603 17.9117C90.7044 17.6046 90.1696 17.3901 89.5559 17.2667C88.9421 17.1444 88.1119 17.083 87.0659 17.083H78.4746V17.4102C78.7166 17.4782 78.8839 17.5673 78.9773 17.6763C79.0715 17.7853 79.1185 17.9454 79.1185 18.1567V29.978C79.1185 30.1828 79.0715 30.3396 78.9773 30.4487C78.8839 30.558 78.7166 30.6469 78.4746 30.7148V31.0422H82.7598V30.7148C82.5256 30.6535 82.3598 30.5664 82.2619 30.4535C82.1651 30.3415 82.1159 30.1828 82.1159 29.978V25.3462H85.782L88.5629 29.4563C88.8781 29.9272 89.0356 30.2237 89.0356 30.3463C89.0356 30.5368 88.864 30.6602 88.5232 30.7147L88.5231 30.7148Z" fill="white"/>
<path id="Vector_7" d="M101.868 19.3846H106.496C107.192 19.3846 107.677 19.4036 107.949 19.4411C108.22 19.4785 108.478 19.5656 108.719 19.7015C109.229 19.9809 109.483 20.486 109.483 21.2154C109.483 21.9445 109.229 22.4488 108.719 22.7282C108.484 22.8584 108.226 22.9435 107.944 22.9837C107.662 23.0249 107.179 23.0458 106.496 23.0458H101.868V19.3846ZM105.534 25.3464L108.315 29.4574C108.629 29.9272 108.786 30.2239 108.786 30.3465C108.786 30.5378 108.616 30.6604 108.274 30.7148V31.042H113.235V30.7148C112.92 30.6947 112.654 30.5876 112.436 30.3931C112.218 30.198 111.874 29.7634 111.404 29.0888L108.739 25.2334C111.227 24.8447 112.471 23.5128 112.471 21.2354C112.471 20.5672 112.347 19.9406 112.099 19.3539C111.837 18.7471 111.442 18.2667 110.912 17.9119C110.455 17.6056 109.921 17.3903 109.307 17.2677C108.694 17.1453 107.864 17.084 106.818 17.084H98.2266V17.4103C98.4675 17.4793 98.6351 17.5674 98.7291 17.6765C98.8233 17.7855 98.8706 17.9464 98.8706 18.1577V29.979C98.8706 30.1838 98.8234 30.3397 98.7291 30.4488C98.6351 30.5578 98.4676 30.6469 98.2266 30.7149V31.0421H102.512V30.7149C102.276 30.6537 102.111 30.5665 102.014 30.4545C101.917 30.3417 101.868 30.1838 101.868 29.979V25.3464H105.534Z" fill="white"/>
<path id="Vector_8" d="M122.682 25.5713L124.945 20.5991L127.172 25.5713H122.682H122.682ZM128.513 30.7149V31.0421H133.568V30.7149C133.286 30.6604 133.062 30.5492 132.895 30.3829C132.726 30.2152 132.532 29.9033 132.311 29.4468L127.079 18.6888C126.952 18.4371 126.888 18.2122 126.888 18.0142C126.888 17.728 127.086 17.5271 127.482 17.4103V17.084H122.612V17.4103C123.001 17.5473 123.196 17.7722 123.196 18.0861C123.196 18.2898 123.116 18.5635 122.955 18.9042L117.904 29.6306C117.724 30.0266 117.563 30.2919 117.421 30.4286C117.281 30.5645 117.076 30.6603 116.809 30.7148V31.042H121.35V30.7148C120.902 30.599 120.678 30.3912 120.678 30.0909C120.678 29.9338 120.742 29.7196 120.869 29.4467L121.793 27.483H128.034L128.978 29.4467C129.112 29.7264 129.179 29.9376 129.179 30.0811C129.179 30.4285 128.956 30.6402 128.513 30.7147L128.513 30.7149Z" fill="white"/>
<path id="Vector_9" d="M147.474 17.4104C147.716 17.4782 147.882 17.5672 147.977 17.6765C148.071 17.7855 148.118 17.9453 148.118 18.1569V25.1204C148.118 25.9253 148.075 26.5204 147.987 26.905C147.9 27.2908 147.739 27.6122 147.504 27.8718C146.86 28.5665 145.757 28.9149 144.194 28.9149C142.639 28.9149 141.538 28.5665 140.895 27.8718C140.654 27.6122 140.489 27.2908 140.402 26.905C140.315 26.5204 140.271 25.9253 140.271 25.1204V18.1569C140.271 17.9454 140.319 17.7837 140.415 17.6706C140.51 17.5589 140.677 17.4717 140.915 17.4105V17.083H136.629V17.4105C136.871 17.4783 137.039 17.5673 137.133 17.6766C137.227 17.7856 137.273 17.9454 137.273 18.157V25.9799C137.273 26.9619 137.4 27.8069 137.655 28.516C137.917 29.2315 138.387 29.7982 139.063 30.2135C140.224 30.9294 141.897 31.2871 144.084 31.2871C147.109 31.2871 149.104 30.6258 150.069 29.3034C150.606 28.5666 150.875 27.4593 150.875 25.9799V18.157C150.875 17.9455 150.922 17.7857 151.015 17.6766C151.109 17.5673 151.276 17.4783 151.518 17.4105V17.083H147.474V17.4105L147.474 17.4104Z" fill="white"/>
<path id="Vector_10" d="M169.677 16.4289C169.61 16.6776 169.523 16.8491 169.416 16.9426C169.308 17.0365 169.154 17.0834 168.953 17.0834H156.801V17.4109C157.042 17.4787 157.209 17.5677 157.304 17.6767C157.398 17.7857 157.445 17.9458 157.445 18.1571V29.9678C157.445 30.1794 157.398 30.34 157.304 30.4493C157.209 30.5583 157.042 30.6462 156.801 30.7151V31.0414H161.086V30.7151C160.852 30.6529 160.685 30.5667 160.588 30.4539C160.491 30.3411 160.442 30.1794 160.442 29.9677V24.9372H166.005C166.213 24.9372 166.371 24.9858 166.479 25.0826C166.586 25.1791 166.672 25.3484 166.74 25.5917H167.062V22.0634H166.74C166.672 22.3053 166.586 22.4749 166.479 22.5714C166.371 22.6691 166.213 22.7179 166.005 22.7179H160.442V19.3839H168.954C169.154 19.3839 169.308 19.4308 169.416 19.5244C169.523 19.6182 169.611 19.7897 169.678 20.0384H169.999V16.4287H169.678L169.677 16.4289Z" fill="white"/>
<path id="Vector_11" d="M48.4222 45.7921V26.7613L41.498 22.6982V49.8553L48.4222 45.7921Z" fill="white"/>
<path id="Vector_12" d="M31.125 55.9437L38.0491 51.8795V20.6724L31.125 16.6084V55.9437Z" fill="white"/>
<path id="Vector_13" d="M24.2114 8.50239L36.3481 15.626L48.4226 22.711V14.2067L47.594 13.7226L41.4005 10.0879L30.2288 3.52992L24.2114 0L0.828611 13.7226L0 14.2067V22.711L12.0745 15.626L24.2114 8.50239Z" fill="white"/>
<path id="Vector_14" d="M10.375 51.8806L17.2989 55.9447V16.6094L10.375 20.6734V51.8806Z" fill="white"/>
<path id="Vector_15" d="M27.6742 14.5842L24.2114 12.5527L20.75 14.5842V57.9686L24.2114 60.0001L27.6742 57.9686V14.5842Z" fill="white"/>
<path id="Vector_16" d="M6.92586 22.6973L0.00195312 26.7613V45.7913L6.92586 49.8553V22.6973Z" fill="white"/>
<path id="Vector_17" d="M66.5451 41.4329L64.7976 36.0654H63.6134L61.8275 41.4033L60.1096 36.0654H58.7773L61.0671 43.0884H62.4395L64.1764 37.8913L65.8841 43.0884H67.2455L69.536 36.0654H68.3119L66.5451 41.4329Z" fill="white"/>
<path id="Vector_18" d="M79.3057 40.8465C79.0948 41.2243 78.8059 41.5181 78.4375 41.7297C78.0685 41.9403 77.6544 42.0455 77.1929 42.0455C76.7325 42.0455 76.3184 41.9403 75.9494 41.7297C75.5814 41.5182 75.2913 41.2244 75.0815 40.8465C74.8705 40.4684 74.765 40.0455 74.765 39.5775C74.765 39.1095 74.8704 38.6856 75.0815 38.3085C75.2913 37.9304 75.5813 37.6358 75.9494 37.4253C76.3184 37.2147 76.7325 37.1095 77.1929 37.1095C77.6544 37.1095 78.0685 37.2147 78.4375 37.4253C78.8058 37.6358 79.0948 37.9304 79.3057 38.3085C79.5165 38.6856 79.6219 39.1095 79.6219 39.5775C79.6219 40.0455 79.5165 40.4684 79.3057 40.8465ZM79.0985 36.432C78.5328 36.1208 77.8972 35.9648 77.1929 35.9648C76.4889 35.9648 75.8544 36.1208 75.2886 36.432C74.7229 36.7429 74.2784 37.1745 73.9554 37.7257C73.6336 38.278 73.4727 38.8951 73.4727 39.5776C73.4727 40.2598 73.6336 40.8762 73.9554 41.4282C74.2784 41.9804 74.7229 42.412 75.2886 42.7231C75.8544 43.034 76.4889 43.1892 77.1929 43.1892C77.8972 43.1892 78.5328 43.034 79.0985 42.7231C79.6643 42.4119 80.1086 41.9812 80.4307 41.4329C80.7536 40.8847 80.9145 40.2665 80.9145 39.5775C80.9145 38.8885 80.7536 38.2693 80.4307 37.721C80.1085 37.1725 79.6643 36.7428 79.0985 36.4319V36.432Z" fill="white"/>
<path id="Vector_19" d="M91.0712 40.8465C90.8603 41.2243 90.5714 41.5181 90.2023 41.7297C89.8343 41.9403 89.4191 42.0455 88.9587 42.0455C88.4984 42.0455 88.0842 41.9403 87.7152 41.7297C87.3469 41.5182 87.0571 41.2244 86.847 40.8465C86.6362 40.4684 86.5308 40.0455 86.5308 39.5775C86.5308 39.1095 86.6362 38.6856 86.847 38.3085C87.057 37.9304 87.3468 37.6358 87.7152 37.4253C88.0842 37.2147 88.4984 37.1095 88.9587 37.1095C89.4191 37.1095 89.8343 37.2147 90.2023 37.4253C90.5713 37.6358 90.8603 37.9304 91.0712 38.3085C91.2821 38.6856 91.3877 39.1095 91.3877 39.5775C91.3877 40.0455 91.2821 40.4684 91.0712 40.8465ZM90.8641 36.432C90.2983 36.1208 89.663 35.9648 88.9587 35.9648C88.2545 35.9648 87.6199 36.1208 87.0542 36.432C86.4884 36.7429 86.0441 37.1745 85.7213 37.7257C85.3991 38.278 85.2383 38.8951 85.2383 39.5776C85.2383 40.2598 85.3992 40.8762 85.7213 41.4282C86.0442 41.9804 86.4884 42.412 87.0542 42.7231C87.6199 43.034 88.2545 43.1892 88.9587 43.1892C89.663 43.1892 90.2983 43.034 90.8641 42.7231C91.4298 42.4119 91.8742 41.9812 92.1962 41.4329C92.5181 40.8847 92.6801 40.2665 92.6801 39.5775C92.6801 38.8885 92.5181 38.2693 92.1962 37.721C91.8741 37.1725 91.4298 36.7428 90.8641 36.4319V36.432Z" fill="white"/>
<path id="Vector_20" d="M102.684 40.8464C102.477 41.211 102.181 41.4923 101.797 41.6895C101.412 41.8865 100.965 41.9852 100.459 41.9852H98.7811V37.1687H100.459C100.965 37.1687 101.412 37.2683 101.797 37.4655C102.181 37.6628 102.477 37.9441 102.684 38.3086C102.891 38.6731 102.995 39.0952 102.995 39.5776C102.995 40.0588 102.891 40.4817 102.684 40.8465V40.8464ZM102.482 36.5016C101.909 36.2108 101.254 36.0654 100.518 36.0654H97.498V43.0884H100.518C101.254 43.0884 101.909 42.943 102.482 42.6519C103.054 42.3611 103.499 41.9496 103.814 41.4185C104.13 40.8866 104.289 40.273 104.289 39.5775C104.289 38.8817 104.13 38.2683 103.814 37.7361C103.499 37.2042 103.054 36.7927 102.482 36.5016Z" fill="white"/>
<path id="Vector_21" d="M69.5516 28.3424C69.1355 28.6085 68.4551 28.7417 67.5099 28.7417H62.4195V24.9378H67.5099C68.4614 24.9378 69.1422 25.0696 69.5516 25.3357C70.0281 25.6495 70.2662 26.1511 70.2662 26.839C70.2662 27.5348 70.0282 28.0352 69.5516 28.3423V28.3424ZM62.4195 19.3845H67.6801C68.4786 19.3845 69.0454 19.509 69.3803 19.7577C69.7155 20.0065 69.8841 20.4236 69.8841 21.0104C69.8841 21.5825 69.7061 22.0054 69.3504 22.2783C69.035 22.5175 68.4786 22.6361 67.6801 22.6361H62.4195V19.3845ZM71.0099 23.7309C72.2508 23.1309 72.871 22.1492 72.871 20.7856C72.871 19.5655 72.4654 18.6315 71.6539 17.9834C71.2453 17.6563 70.769 17.4246 70.2257 17.2879C69.6827 17.152 68.9654 17.084 68.0728 17.084H58.7773V17.4114C59.0194 17.4793 59.187 17.5674 59.2801 17.6765C59.3742 17.7855 59.4212 17.9464 59.4212 18.1577V29.9684C59.4212 30.1799 59.3742 30.3397 59.2801 30.4488C59.187 30.5578 59.0194 30.6469 58.7773 30.7149V31.0421H68.1633C69.0492 31.0421 69.7919 30.9618 70.3916 30.8021C70.9923 30.6423 71.5204 30.3811 71.9759 30.0203C72.8752 29.2969 73.3241 28.2986 73.3241 27.0231C73.3241 25.4211 72.5532 24.3235 71.0102 23.7311L71.0099 23.7309Z" fill="white"/>
<path id="Vector_22" d="M88.1927 22.9835C87.9112 23.0248 87.4284 23.0448 86.7439 23.0448H82.1158V19.3843H86.7439C87.4415 19.3843 87.9263 19.4025 88.1974 19.4399C88.4694 19.4782 88.7255 19.5644 88.9676 19.7011C89.4767 19.9805 89.7319 20.4847 89.7319 21.2139C89.7319 21.9442 89.4768 22.4484 88.9676 22.7278C88.7322 22.8572 88.4742 22.9423 88.1926 22.9833L88.1927 22.9835ZM88.5231 30.7148V31.0422H93.4846V30.7148C93.1691 30.6939 92.9028 30.5864 92.6843 30.3922C92.4668 30.1979 92.1223 29.7637 91.6534 29.0887L88.9875 25.2334C91.4757 24.8449 92.7201 23.5119 92.7201 21.2353C92.7201 20.5675 92.596 19.9394 92.3473 19.3529C92.0858 18.7461 91.6903 18.2657 91.1603 17.9117C90.7044 17.6046 90.1696 17.3901 89.5559 17.2667C88.9421 17.1444 88.1119 17.083 87.0659 17.083H78.4746V17.4102C78.7166 17.4782 78.8839 17.5673 78.9773 17.6763C79.0715 17.7853 79.1185 17.9454 79.1185 18.1567V29.978C79.1185 30.1828 79.0715 30.3396 78.9773 30.4487C78.8839 30.558 78.7166 30.6469 78.4746 30.7148V31.0422H82.7598V30.7148C82.5256 30.6535 82.3598 30.5664 82.2619 30.4535C82.1651 30.3415 82.1159 30.1828 82.1159 29.978V25.3462H85.782L88.5629 29.4563C88.8781 29.9272 89.0356 30.2237 89.0356 30.3463C89.0356 30.5368 88.864 30.6602 88.5232 30.7147L88.5231 30.7148Z" fill="white"/>
<path id="Vector_23" d="M101.868 19.3846H106.496C107.192 19.3846 107.677 19.4036 107.949 19.4411C108.22 19.4785 108.478 19.5656 108.719 19.7015C109.229 19.9809 109.483 20.486 109.483 21.2154C109.483 21.9445 109.229 22.4488 108.719 22.7282C108.484 22.8584 108.226 22.9435 107.944 22.9837C107.662 23.0249 107.179 23.0458 106.496 23.0458H101.868V19.3846ZM105.534 25.3464L108.315 29.4574C108.629 29.9272 108.786 30.2239 108.786 30.3465C108.786 30.5378 108.616 30.6604 108.274 30.7148V31.042H113.235V30.7148C112.92 30.6947 112.654 30.5876 112.436 30.3931C112.218 30.198 111.874 29.7634 111.404 29.0888L108.739 25.2334C111.227 24.8447 112.471 23.5128 112.471 21.2354C112.471 20.5672 112.347 19.9406 112.099 19.3539C111.837 18.7471 111.442 18.2667 110.912 17.9119C110.455 17.6056 109.921 17.3903 109.307 17.2677C108.694 17.1453 107.864 17.084 106.818 17.084H98.2266V17.4103C98.4675 17.4793 98.6351 17.5674 98.7291 17.6765C98.8233 17.7855 98.8706 17.9464 98.8706 18.1577V29.979C98.8706 30.1838 98.8234 30.3397 98.7291 30.4488C98.6351 30.5578 98.4676 30.6469 98.2266 30.7149V31.0421H102.512V30.7149C102.276 30.6537 102.111 30.5665 102.014 30.4545C101.917 30.3417 101.868 30.1838 101.868 29.979V25.3464H105.534Z" fill="white"/>
<path id="Vector_24" d="M122.682 25.5713L124.945 20.5991L127.172 25.5713H122.682H122.682ZM128.513 30.7149V31.0421H133.568V30.7149C133.286 30.6604 133.062 30.5492 132.895 30.3829C132.726 30.2152 132.532 29.9033 132.311 29.4468L127.079 18.6888C126.952 18.4371 126.888 18.2122 126.888 18.0142C126.888 17.728 127.086 17.5271 127.482 17.4103V17.084H122.612V17.4103C123.001 17.5473 123.196 17.7722 123.196 18.0861C123.196 18.2898 123.116 18.5635 122.955 18.9042L117.904 29.6306C117.724 30.0266 117.563 30.2919 117.421 30.4286C117.281 30.5645 117.076 30.6603 116.809 30.7148V31.042H121.35V30.7148C120.902 30.599 120.678 30.3912 120.678 30.0909C120.678 29.9338 120.742 29.7196 120.869 29.4467L121.793 27.483H128.034L128.978 29.4467C129.112 29.7264 129.179 29.9376 129.179 30.0811C129.179 30.4285 128.956 30.6402 128.513 30.7147L128.513 30.7149Z" fill="white"/>
<path id="Vector_25" d="M147.474 17.4104C147.716 17.4782 147.882 17.5672 147.977 17.6765C148.071 17.7855 148.118 17.9453 148.118 18.1569V25.1204C148.118 25.9253 148.075 26.5204 147.987 26.905C147.9 27.2908 147.739 27.6122 147.504 27.8718C146.86 28.5665 145.757 28.9149 144.194 28.9149C142.639 28.9149 141.538 28.5665 140.895 27.8718C140.654 27.6122 140.489 27.2908 140.402 26.905C140.315 26.5204 140.271 25.9253 140.271 25.1204V18.1569C140.271 17.9454 140.319 17.7837 140.415 17.6706C140.51 17.5589 140.677 17.4717 140.915 17.4105V17.083H136.629V17.4105C136.871 17.4783 137.039 17.5673 137.133 17.6766C137.227 17.7856 137.273 17.9454 137.273 18.157V25.9799C137.273 26.9619 137.4 27.8069 137.655 28.516C137.917 29.2315 138.387 29.7982 139.063 30.2135C140.224 30.9294 141.897 31.2871 144.084 31.2871C147.109 31.2871 149.104 30.6258 150.069 29.3034C150.606 28.5666 150.875 27.4593 150.875 25.9799V18.157C150.875 17.9455 150.922 17.7857 151.015 17.6766C151.109 17.5673 151.276 17.4783 151.518 17.4105V17.083H147.474V17.4105L147.474 17.4104Z" fill="white"/>
<path id="Vector_26" d="M169.677 16.4289C169.61 16.6776 169.523 16.8491 169.416 16.9426C169.308 17.0365 169.154 17.0834 168.953 17.0834H156.801V17.4109C157.042 17.4787 157.209 17.5677 157.304 17.6767C157.398 17.7857 157.445 17.9458 157.445 18.1571V29.9678C157.445 30.1794 157.398 30.34 157.304 30.4493C157.209 30.5583 157.042 30.6462 156.801 30.7151V31.0414H161.086V30.7151C160.852 30.6529 160.685 30.5667 160.588 30.4539C160.491 30.3411 160.442 30.1794 160.442 29.9677V24.9372H166.005C166.213 24.9372 166.371 24.9858 166.479 25.0826C166.586 25.1791 166.672 25.3484 166.74 25.5917H167.062V22.0634H166.74C166.672 22.3053 166.586 22.4749 166.479 22.5714C166.371 22.6691 166.213 22.7179 166.005 22.7179H160.442V19.3839H168.954C169.154 19.3839 169.308 19.4308 169.416 19.5244C169.523 19.6182 169.611 19.7897 169.678 20.0384H169.999V16.4287H169.678L169.677 16.4289Z" fill="white"/>
<path id="Vector_27" d="M48.4222 45.7921V26.7613L41.498 22.6982V49.8553L48.4222 45.7921Z" fill="white"/>
<path id="Vector_28" d="M31.125 55.9437L38.0491 51.8795V20.6724L31.125 16.6084V55.9437Z" fill="white"/>
<path id="Vector_29" d="M24.2114 8.50239L36.3481 15.626L48.4226 22.711V14.2067L47.594 13.7226L41.4005 10.0879L30.2288 3.52992L24.2114 0L0.828611 13.7226L0 14.2067V22.711L12.0745 15.626L24.2114 8.50239Z" fill="white"/>
<path id="Vector_30" d="M10.375 51.8806L17.2989 55.9447V16.6094L10.375 20.6734V51.8806Z" fill="white"/>
<path id="Vector_31" d="M27.6742 14.5842L24.2114 12.5527L20.75 14.5842V57.9686L24.2114 60.0001L27.6742 57.9686V14.5842Z" fill="white"/>
<path id="Vector_32" d="M6.92586 22.6973L0.00195312 26.7613V45.7913L6.92586 49.8553V22.6973Z" fill="white"/>
</g>
</g>
</g>
<defs>
<clipPath id="clip0_252_724">
<rect width="170" height="60" fill="white"/>
</clipPath>
</defs>
</svg>
