<svg width="225" height="57" viewBox="0 0 225 57" fill="none" xmlns="http://www.w3.org/2000/svg">
<g id="Group">
<g id="Group_2">
<path id="Vector" d="M68.4241 6.78144C68.4241 4.31566 68.4241 3.69922 70.8898 3.69922H76.4378L94.9312 27.7405V28.357V4.3157H99.8628C99.8628 4.3157 99.8628 6.165 99.8628 6.78144V32.0557C99.8628 34.5215 99.2464 34.5215 96.7806 34.5215H91.2325L72.7391 10.4802V9.86367V34.5215H67.8076V6.78144H68.4241Z" fill="white"/>
<path id="Vector_2" d="M147.332 34.5222C143.633 34.5222 142.4 32.0563 141.168 29.5905C138.085 20.9603 135.003 12.3302 131.921 4.31641H139.318C141.784 11.7137 144.25 19.1109 146.716 26.5083C147.332 28.3576 148.565 28.9742 149.181 28.9742C149.798 28.9742 149.798 28.9742 150.414 28.9742V28.3577C152.88 20.9604 155.962 12.3302 158.428 4.31641H163.36C159.661 14.1795 155.962 24.6591 152.264 34.5222H147.332Z" fill="white"/>
<path id="Vector_3" d="M181.848 3.08203C191.094 3.08203 199.108 4.31492 199.108 18.4932C199.108 33.2878 190.478 34.5208 181.231 34.5208C171.368 34.5208 163.971 33.2878 163.971 18.4932C163.971 4.31492 172.601 3.08203 181.848 3.08203ZM181.231 6.78074C174.45 6.78074 170.135 8.01363 170.135 19.1096C170.135 29.5892 174.45 31.4385 181.231 31.4385C188.012 31.4385 192.327 30.2056 192.327 19.1096C192.327 8.63007 188.628 6.78074 181.231 6.78074Z" fill="white"/>
<path id="Vector_4" d="M204.04 6.16496C204.04 4.31563 204.04 3.69922 206.506 3.69922H210.821V33.905H204.04V6.16496Z" fill="white"/>
</g>
<g id="Group_3">
<path id="Vector_5" d="M220.685 3.08252C223.151 3.08252 225 4.93193 225 7.39771C225 9.86349 223.151 11.7127 220.685 11.7127C218.219 11.7127 216.37 9.86349 216.37 7.39771C216.37 4.31549 218.219 3.08252 220.685 3.08252ZM220.685 9.86345C222.534 9.86345 223.767 8.01412 223.767 6.78123C223.767 4.93189 222.534 3.699 220.685 3.699C218.836 3.699 217.603 4.93189 217.603 6.78123C216.986 8.63056 218.836 9.86345 220.685 9.86345ZM219.452 7.39771V9.24697H218.836V5.54826C218.836 4.93182 218.836 4.93178 219.452 4.93178C220.069 4.93178 221.918 4.93178 221.918 4.93178C222.535 4.93178 222.535 5.5483 222.535 6.16475C222.535 6.78119 222.535 6.78127 221.918 7.39771C222.535 7.39771 222.535 8.01401 222.535 8.01401V9.24697H221.918H221.302V8.63049C221.302 8.01404 221.302 8.01401 220.685 8.01401C220.685 7.39756 220.069 7.39771 219.452 7.39771ZM221.302 6.78123C221.918 6.78123 221.918 6.78119 221.918 6.16475C221.918 5.5483 221.918 5.54826 221.302 5.54826C220.685 5.54826 220.069 5.54826 219.452 5.54826V6.78123C219.452 6.78123 220.685 6.78123 221.302 6.78123Z" fill="#9BCB3C"/>
</g>
<g id="Group_4">
<path id="Vector_6" d="M14.7946 36.9867L14.1783 36.3702L15.4111 35.1374C14.7947 34.521 14.7947 33.2881 15.4111 32.0552C16.0276 31.4388 17.2605 30.8223 18.4934 31.4387L19.7262 30.2058L20.9591 31.4387C35.7538 18.4934 49.3156 10.4796 49.3156 10.4796C39.4525 17.877 30.8223 26.5072 24.6578 34.521L25.8907 35.1374L24.6578 36.3702L43.7676 52.3978C53.6308 47.4663 60.4116 38.2196 60.4116 27.1235V0H30.8223C13.5618 0 0 12.9454 0 28.973V54.2471C4.31512 48.0826 9.24664 41.9183 14.7946 36.9867Z" fill="#9BCB3C"/>
<path id="Vector_7" d="M21.5745 40.0693L20.3416 41.3023L19.1087 40.6858C13.5607 47.4667 9.86203 53.0147 8.0127 56.0969H28.9718C32.054 56.0969 35.1362 55.4804 38.2185 54.864L21.5745 40.0693Z" fill="white"/>
</g>
<path id="Vector_8" d="M126.99 8.6307C125.757 5.54848 123.907 3.69922 119.592 3.69922C114.661 3.69922 113.428 5.54848 112.195 8.6307L102.948 34.5215H107.88L110.962 26.5076L112.195 23.4253L116.51 11.0964C117.126 9.86356 117.126 8.6307 119.592 8.6307C121.441 8.6307 122.058 9.86356 122.058 11.0964L126.373 23.4253L127.606 26.5076L130.688 34.5215H137.469L126.99 8.6307Z" fill="white"/>
<g id="Group_5">
<g id="Group_6">
<path id="Vector_9" d="M89.3828 44.3833C89.3828 40.0682 91.2321 39.4517 94.9308 39.4517C96.1637 39.4517 97.3966 39.4517 98.6295 39.4517C99.2459 39.4517 99.8625 40.0682 99.8625 40.6846V41.3011C99.246 40.6847 96.7802 40.6846 95.5473 40.6846C92.465 40.6846 91.2321 41.3011 91.2321 44.3833C91.2321 47.4656 91.8486 48.0819 94.9308 48.0819C97.3966 48.0819 98.013 47.4654 98.013 45.6161C98.013 44.9997 98.013 44.9996 98.013 44.9996H93.698C93.698 44.3832 93.6979 43.7669 94.9308 43.7669H99.8625V45.6161C99.8625 48.6983 98.013 49.3148 94.3143 49.3148H93.698C90.6158 49.3148 89.3828 48.082 89.3828 44.3833Z" fill="#9BCB3C"/>
<path id="Vector_10" d="M114.042 45.6161V49.3148H112.192V40.6846C112.192 40.0682 112.192 39.4517 113.425 39.4517C114.658 39.4517 118.973 39.4517 120.206 39.4517C121.439 39.4517 122.055 40.0681 122.055 41.9174C122.055 43.1503 121.439 43.7669 120.823 44.3833H120.206C120.206 44.3833 120.206 44.3833 120.823 44.3833C122.055 44.3833 122.055 45.6161 122.055 46.2326V48.6983C122.055 49.3148 122.055 49.3148 122.055 49.3148H120.823C120.206 49.3148 120.206 49.3148 120.206 48.6983V46.8491C120.206 46.2326 119.59 45.6161 118.973 45.6161H118.357C117.74 45.6161 115.891 45.6161 114.042 45.6161ZM118.357 44.3833C118.973 44.3833 120.206 43.7668 120.206 42.5339C120.206 41.301 119.59 40.6846 118.973 40.6846C117.74 40.6846 115.275 40.6846 114.658 40.6846C114.658 40.6846 114.042 40.6847 114.042 41.3011V44.3833C114.658 44.3833 117.124 44.3833 118.357 44.3833Z" fill="#9BCB3C"/>
<path id="Vector_11" d="M139.316 39.4517C142.398 39.4517 144.864 40.0682 144.864 44.3833C144.864 48.6985 142.398 49.3148 139.316 49.3148C136.233 49.3148 133.768 48.6985 133.768 44.3833C133.768 40.0682 136.233 39.4517 139.316 39.4517ZM139.316 40.6846C136.85 40.6846 135.617 41.3011 135.617 44.3833C135.617 47.4656 136.85 48.0819 139.316 48.0819C141.781 48.0819 143.014 47.4656 143.014 44.3833C143.014 41.3011 141.781 40.6846 139.316 40.6846Z" fill="#9BCB3C"/>
<path id="Vector_12" d="M157.192 40.6853C157.192 40.0689 157.192 40.0688 157.809 40.0688H166.439V41.3018H159.042V44.384H165.823V45.6168H159.042V49.932H157.192V40.6853Z" fill="#9BCB3C"/>
<path id="Vector_13" d="M183.081 39.4517C186.164 39.4517 188.629 40.0682 188.629 44.3833C188.629 48.6985 186.164 49.3148 183.081 49.3148C179.999 49.3148 177.533 48.6985 177.533 44.3833C177.533 40.0682 180.616 39.4517 183.081 39.4517ZM183.081 40.6846C180.616 40.6846 179.383 41.3011 179.383 44.3833C179.383 47.4656 180.616 48.0819 183.081 48.0819C185.547 48.0819 186.78 47.4656 186.78 44.3833C186.78 41.3011 185.547 40.6846 183.081 40.6846Z" fill="#9BCB3C"/>
<path id="Vector_14" d="M204.66 48.0819C204.66 48.0819 205.277 48.0819 205.893 48.0819C207.126 48.0819 208.359 47.4655 208.359 46.2326C208.359 44.9997 207.742 44.9996 206.509 44.9996H204.044C202.194 44.9996 200.345 44.9997 200.345 42.5339C200.345 40.0681 202.811 39.4517 205.276 39.4517C206.509 39.4517 208.359 39.4517 208.975 40.0681C209.592 40.0681 209.592 40.6846 209.592 40.6846V41.3011C208.975 40.6847 207.126 40.6846 205.893 40.6846H204.66C203.427 40.6846 202.194 40.6846 202.194 42.5339C202.194 43.7668 202.811 43.7669 204.044 43.7669H206.509C208.359 43.7669 209.592 43.7668 209.592 46.2326C209.592 48.6984 207.742 49.3148 205.893 49.3148C205.277 49.3148 204.044 49.3148 203.427 49.3148C202.194 49.3148 199.729 49.3147 199.729 48.0819V47.4656C201.578 48.082 203.427 48.0819 204.66 48.0819Z" fill="#9BCB3C"/>
</g>
<path id="Vector_15" d="M75.8213 41.3018C75.2049 40.0689 74.5885 40.0688 73.3556 40.0688C72.1227 40.0688 71.5063 40.6854 70.8898 41.3018L67.8076 49.3155H69.6569L72.1228 41.9181C72.1228 41.3017 72.1227 41.3018 72.7391 41.3018C73.3555 41.3018 73.3556 41.9181 73.3556 41.9181L75.8213 49.3155H78.2873L75.8213 41.3018Z" fill="#9BCB3C"/>
</g>
</g>
</svg>
