<svg width="143" height="50" viewBox="0 0 143 50" fill="none" xmlns="http://www.w3.org/2000/svg">
<g id="logo Brrauf" clip-path="url(#clip0_252_426)">
<g id="Layer_x0020_1">
<g id="_1880332797824">
<path id="Vector" d="M55.9755 34.5276L54.5055 30.0547H53.5093L52.0072 34.5029L50.562 30.0547H49.4414L51.3675 35.9072H52.5219L53.983 31.5762L55.4194 35.9072H56.5646L58.4914 30.0547H57.4617L55.9755 34.5276Z" fill="black"/>
<path id="Vector_2" d="M66.7113 34.0387C66.5339 34.3536 66.2909 34.5984 65.981 34.7748C65.6706 34.9502 65.3222 35.0379 64.9341 35.0379C64.5468 35.0379 64.1985 34.9502 63.888 34.7748C63.5785 34.5985 63.3345 34.3537 63.158 34.0387C62.9805 33.7236 62.8918 33.3712 62.8918 32.9813C62.8918 32.5913 62.9804 32.238 63.158 31.9238C63.3345 31.6087 63.5784 31.3632 63.888 31.1877C64.1985 31.0123 64.5468 30.9246 64.9341 30.9246C65.3222 30.9246 65.6706 31.0123 65.981 31.1877C66.2908 31.3632 66.5339 31.6087 66.7113 31.9238C66.8887 32.238 66.9773 32.5913 66.9773 32.9813C66.9773 33.3712 66.8887 33.7236 66.7113 34.0387ZM66.5371 30.36C66.0612 30.1007 65.5265 29.9707 64.9341 29.9707C64.3419 29.9707 63.8081 30.1007 63.3323 30.36C62.8564 30.6191 62.4824 30.9787 62.2108 31.438C61.9401 31.8983 61.8047 32.4126 61.8047 32.9813C61.8047 33.5498 61.9401 34.0635 62.2108 34.5235C62.4824 34.9837 62.8564 35.3434 63.3323 35.6026C63.8081 35.8617 64.3419 35.991 64.9341 35.991C65.5265 35.991 66.0612 35.8617 66.5371 35.6026C67.0129 35.3433 67.3867 34.9844 67.6576 34.5275C67.9293 34.0706 68.0646 33.5554 68.0646 32.9813C68.0646 32.4071 67.9293 31.8911 67.6576 31.4341C67.3866 30.9771 67.0129 30.619 66.5371 30.3599V30.36Z" fill="black"/>
<path id="Vector_3" d="M76.6077 34.0387C76.4303 34.3536 76.1873 34.5984 75.8768 34.7748C75.5673 34.9502 75.218 35.0379 74.8307 35.0379C74.4435 35.0379 74.0951 34.9502 73.7847 34.7748C73.4749 34.5985 73.2311 34.3537 73.0544 34.0387C72.877 33.7236 72.7884 33.3712 72.7884 32.9813C72.7884 32.5913 72.877 32.238 73.0544 31.9238C73.231 31.6087 73.4748 31.3632 73.7847 31.1877C74.0951 31.0123 74.4435 30.9246 74.8307 30.9246C75.218 30.9246 75.5673 31.0123 75.8768 31.1877C76.1872 31.3632 76.4303 31.6087 76.6077 31.9238C76.7851 32.238 76.874 32.5913 76.874 32.9813C76.874 33.3712 76.7851 33.7236 76.6077 34.0387ZM76.4335 30.36C75.9576 30.1007 75.4231 29.9707 74.8307 29.9707C74.2383 29.9707 73.7045 30.1007 73.2287 30.36C72.7528 30.6191 72.379 30.9787 72.1074 31.438C71.8365 31.8983 71.7012 32.4126 71.7012 32.9813C71.7012 33.5498 71.8365 34.0635 72.1074 34.5235C72.3791 34.9837 72.7528 35.3434 73.2287 35.6026C73.7045 35.8617 74.2383 35.991 74.8307 35.991C75.4231 35.991 75.9576 35.8617 76.4335 35.6026C76.9093 35.3433 77.2831 34.9844 77.554 34.5275C77.8247 34.0706 77.961 33.5554 77.961 32.9813C77.961 32.4071 77.8247 31.8911 77.554 31.4341C77.283 30.9771 76.9093 30.619 76.4335 30.3599V30.36Z" fill="black"/>
<path id="Vector_4" d="M86.3762 34.0389C86.2019 34.3426 85.9526 34.5771 85.6295 34.7414C85.3056 34.9056 84.9303 34.9878 84.5043 34.9878H83.093V30.9741H84.5043C84.9303 30.9741 85.3056 31.057 85.6295 31.2214C85.9525 31.3858 86.2019 31.6202 86.3762 31.924C86.5504 32.2278 86.6375 32.5795 86.6375 32.9815C86.6375 33.3825 86.5504 33.7349 86.3762 34.0389V34.0389ZM86.206 30.4182C85.7245 30.1759 85.1734 30.0547 84.554 30.0547H82.0137V35.9072H84.554C85.1734 35.9072 85.7245 35.786 86.206 35.5434C86.6875 35.3011 87.0613 34.9582 87.3265 34.5156C87.5926 34.0723 87.7257 33.561 87.7257 32.9814C87.7257 32.4016 87.5926 31.8904 87.3265 31.4469C87.0612 31.0037 86.6875 30.6607 86.206 30.4182Z" fill="black"/>
<path id="Vector_5" d="M58.5044 23.6183C58.1545 23.8401 57.5821 23.9511 56.787 23.9511H52.5051V20.7811H56.787C57.5874 20.7811 58.1601 20.891 58.5044 21.1127C58.9053 21.3743 59.1056 21.7922 59.1056 22.3655C59.1056 22.9453 58.9054 23.3623 58.5044 23.6182V23.6183ZM52.5051 16.1534H56.9302C57.6018 16.1534 58.0786 16.2572 58.3604 16.4645C58.6423 16.6717 58.7842 17.0194 58.7842 17.5084C58.7842 17.9851 58.6344 18.3375 58.3352 18.5649C58.0699 18.7643 57.6018 18.8631 56.9302 18.8631H52.5051V16.1534ZM59.7311 19.7755C60.775 19.2754 61.2967 18.4573 61.2967 17.321C61.2967 16.3042 60.9555 15.5259 60.2729 14.9859C59.9292 14.7132 59.5285 14.5202 59.0715 14.4063C58.6147 14.293 58.0113 14.2363 57.2605 14.2363H49.4414V14.5092C49.645 14.5658 49.786 14.6392 49.8643 14.7301C49.9435 14.8209 49.983 14.955 49.983 15.1311V24.9733C49.983 25.1496 49.9435 25.2828 49.8643 25.3737C49.786 25.4646 49.645 25.5387 49.4414 25.5955V25.8681H57.3366C58.0819 25.8681 58.7066 25.8011 59.211 25.6681C59.7163 25.5349 60.1606 25.3172 60.5438 25.0166C61.3002 24.4137 61.6778 23.5818 61.6778 22.5189C61.6778 21.1839 61.0293 20.2693 59.7314 19.7756L59.7311 19.7755Z" fill="black"/>
<path id="Vector_6" d="M74.1864 19.1529C73.9495 19.1873 73.5434 19.204 72.9677 19.204H69.0746V16.1536H72.9677C73.5544 16.1536 73.9623 16.1688 74.1903 16.1999C74.4191 16.2318 74.6346 16.3037 74.8381 16.4176C75.2664 16.6504 75.4811 17.0706 75.4811 17.6782C75.4811 18.2868 75.2665 18.707 74.8381 18.9398C74.6402 19.0477 74.4231 19.1186 74.1863 19.1528L74.1864 19.1529ZM74.4643 25.5956V25.8685H78.6377V25.5956C78.3724 25.5782 78.1484 25.4887 77.9646 25.3268C77.7816 25.1649 77.4918 24.803 77.0974 24.2406L74.8549 21.0278C76.9479 20.7041 77.9947 19.5933 77.9947 17.6961C77.9947 17.1396 77.8903 16.6162 77.6811 16.1275C77.4611 15.6217 77.1285 15.2215 76.6826 14.9264C76.2991 14.6705 75.8493 14.4917 75.3331 14.3889C74.8167 14.287 74.1184 14.2358 73.2385 14.2358H66.0117V14.5085C66.2153 14.5652 66.356 14.6394 66.4346 14.7302C66.5138 14.8211 66.5533 14.9545 66.5533 15.1306V24.9817C66.5533 25.1524 66.5138 25.283 66.4346 25.3739C66.356 25.465 66.2153 25.5391 66.0117 25.5956V25.8685H69.6163V25.5956C69.4193 25.5446 69.2799 25.472 69.1975 25.378C69.116 25.2846 69.0747 25.1524 69.0747 24.9817V21.1218H72.1585L74.4978 24.5469C74.7629 24.9394 74.8954 25.1864 74.8954 25.2886C74.8954 25.4473 74.7511 25.5502 74.4644 25.5955L74.4643 25.5956Z" fill="black"/>
<path id="Vector_7" d="M85.688 16.1535H89.581C90.1669 16.1535 90.5747 16.1693 90.8035 16.2006C91.0316 16.2318 91.248 16.3043 91.4507 16.4176C91.8799 16.6504 92.0936 17.0713 92.0936 17.6791C92.0936 18.2868 91.8799 18.707 91.4507 18.9398C91.2534 19.0483 91.0366 19.1193 90.7988 19.1527C90.562 19.1871 90.1559 19.2045 89.581 19.2045H85.688V16.1535ZM88.7716 21.1216L91.1108 24.5475C91.3755 24.939 91.5077 25.1863 91.5077 25.2884C91.5077 25.4478 91.3642 25.55 91.0769 25.5954V25.868H95.2501V25.5954C94.9848 25.5786 94.7607 25.4894 94.5778 25.3272C94.394 25.1647 94.1051 24.8025 93.7098 24.2404L91.468 21.0275C93.561 20.7036 94.607 19.5937 94.607 17.6958C94.607 17.139 94.5027 16.6168 94.2944 16.1279C94.0742 15.6222 93.7417 15.2219 93.2957 14.9262C92.9116 14.671 92.462 14.4916 91.9457 14.3894C91.4301 14.2875 90.7315 14.2363 89.8518 14.2363H82.625V14.5083C82.8277 14.5658 82.9687 14.6392 83.0477 14.7301C83.1269 14.8209 83.1667 14.955 83.1667 15.1311V24.9822C83.1667 25.1529 83.127 25.2828 83.0477 25.3737C82.9687 25.4646 82.8278 25.5387 82.625 25.5955V25.8681H86.2296V25.5955C86.0317 25.5444 85.8922 25.4718 85.8108 25.3784C85.7291 25.2844 85.688 25.1529 85.688 24.9822V21.1216H88.7716Z" fill="black"/>
<path id="Vector_8" d="M103.198 21.3091L105.102 17.1656L106.975 21.3091H103.199H103.198ZM108.104 25.5955V25.8681H112.355V25.5955C112.118 25.55 111.93 25.4573 111.789 25.3187C111.647 25.179 111.484 24.9191 111.298 24.5386L106.897 15.5737C106.791 15.3639 106.737 15.1765 106.737 15.0115C106.737 14.773 106.903 14.6056 107.236 14.5083V14.2363H103.14V14.5083C103.467 14.6225 103.631 14.8098 103.631 15.0714C103.631 15.2412 103.563 15.4693 103.428 15.7531L99.1795 24.6919C99.0275 25.0219 98.8921 25.243 98.7732 25.3569C98.6554 25.4701 98.4827 25.5499 98.2578 25.5954V25.868H102.078V25.5954C101.701 25.4989 101.512 25.3257 101.512 25.0754C101.512 24.9445 101.566 24.766 101.673 24.5386L102.451 22.9022H107.7L108.494 24.5386C108.607 24.7716 108.663 24.9477 108.663 25.0673C108.663 25.3568 108.476 25.5332 108.103 25.5953L108.104 25.5955Z" fill="black"/>
<path id="Vector_9" d="M124.05 14.5086C124.254 14.5652 124.394 14.6393 124.473 14.7304C124.552 14.8212 124.592 14.9544 124.592 15.1308V20.9337C124.592 21.6044 124.556 22.1003 124.482 22.4209C124.408 22.7423 124.273 23.0102 124.076 23.2265C123.534 23.8054 122.606 24.0957 121.292 24.0957C119.983 24.0957 119.058 23.8054 118.516 23.2265C118.313 23.0102 118.174 22.7423 118.102 22.4209C118.028 22.1003 117.992 21.6044 117.992 20.9337V15.1308C117.992 14.9545 118.032 14.8197 118.112 14.7255C118.193 14.6324 118.333 14.5598 118.533 14.5087V14.2358H114.928V14.5087C115.131 14.5653 115.272 14.6394 115.352 14.7305C115.431 14.8213 115.469 14.9545 115.469 15.1309V21.6499C115.469 22.4682 115.576 23.1724 115.791 23.7633C116.011 24.3596 116.406 24.8319 116.976 25.1779C117.952 25.7745 119.359 26.0726 121.199 26.0726C123.743 26.0726 125.421 25.5215 126.234 24.4195C126.685 23.8055 126.911 22.8828 126.911 21.6499V15.1309C126.911 14.9546 126.95 14.8214 127.029 14.7305C127.108 14.6394 127.249 14.5653 127.452 14.5087V14.2358H124.05V14.5087L124.05 14.5086Z" fill="black"/>
<path id="Vector_10" d="M142.73 13.6906C142.674 13.8979 142.6 14.0408 142.51 14.1187C142.42 14.1969 142.29 14.236 142.121 14.236H131.898V14.5089C132.101 14.5655 132.242 14.6396 132.321 14.7304C132.401 14.8213 132.44 14.9547 132.44 15.1308V24.973C132.44 25.1493 132.401 25.2831 132.321 25.3742C132.242 25.4651 132.101 25.5384 131.898 25.5957V25.8677H135.503V25.5957C135.306 25.5439 135.166 25.4721 135.084 25.3781C135.003 25.284 134.961 25.1493 134.961 24.9729V20.7808H139.641C139.816 20.7808 139.949 20.8213 140.039 20.902C140.129 20.9824 140.202 21.1235 140.259 21.3263H140.53V18.386H140.259C140.202 18.5876 140.129 18.7289 140.039 18.8094C139.949 18.8907 139.816 18.9314 139.641 18.9314H134.961V16.153H142.121C142.29 16.153 142.42 16.1922 142.51 16.2701C142.6 16.3483 142.674 16.4912 142.73 16.6985H143.001V13.6904H142.73L142.73 13.6906Z" fill="black"/>
<path id="Vector_11" d="M40.7307 38.1599V22.3009L34.9062 18.915V41.5459L40.7307 38.1599Z" fill="black"/>
<path id="Vector_12" d="M26.1797 46.6197L32.0041 43.2329V17.227L26.1797 13.8403V46.6197Z" fill="black"/>
<path id="Vector_13" d="M20.3661 7.08533L30.5752 13.0217L40.7319 18.9258V11.8389L40.0349 11.4355L34.8251 8.40661L25.4278 2.9416L20.3661 0L0.697008 11.4355L0 11.8389V18.9258L10.1568 13.0217L20.3661 7.08533Z" fill="black"/>
<path id="Vector_14" d="M8.72656 43.2335L14.5508 46.6202V13.8408L8.72656 17.2275V43.2335Z" fill="black"/>
<path id="Vector_15" d="M23.2776 12.1533L20.3648 10.4604L17.4531 12.1533V48.307L20.3648 49.9999L23.2776 48.307V12.1533Z" fill="black"/>
<path id="Vector_16" d="M5.82422 18.9146L0 22.3012V38.1596L5.82422 41.5463V18.9146Z" fill="black"/>
<path id="Vector_17" d="M55.9755 34.5276L54.5055 30.0547H53.5093L52.0072 34.5029L50.562 30.0547H49.4414L51.3675 35.9072H52.5219L53.983 31.5762L55.4194 35.9072H56.5646L58.4914 30.0547H57.4617L55.9755 34.5276Z" fill="black"/>
<path id="Vector_18" d="M66.7113 34.0387C66.5339 34.3536 66.2909 34.5984 65.981 34.7748C65.6706 34.9502 65.3222 35.0379 64.9341 35.0379C64.5468 35.0379 64.1985 34.9502 63.888 34.7748C63.5785 34.5985 63.3345 34.3537 63.158 34.0387C62.9805 33.7236 62.8918 33.3712 62.8918 32.9813C62.8918 32.5913 62.9804 32.238 63.158 31.9238C63.3345 31.6087 63.5784 31.3632 63.888 31.1877C64.1985 31.0123 64.5468 30.9246 64.9341 30.9246C65.3222 30.9246 65.6706 31.0123 65.981 31.1877C66.2908 31.3632 66.5339 31.6087 66.7113 31.9238C66.8887 32.238 66.9773 32.5913 66.9773 32.9813C66.9773 33.3712 66.8887 33.7236 66.7113 34.0387ZM66.5371 30.36C66.0612 30.1007 65.5265 29.9707 64.9341 29.9707C64.3419 29.9707 63.8081 30.1007 63.3323 30.36C62.8564 30.6191 62.4824 30.9787 62.2108 31.438C61.9401 31.8983 61.8047 32.4126 61.8047 32.9813C61.8047 33.5498 61.9401 34.0635 62.2108 34.5235C62.4824 34.9837 62.8564 35.3434 63.3323 35.6026C63.8081 35.8617 64.3419 35.991 64.9341 35.991C65.5265 35.991 66.0612 35.8617 66.5371 35.6026C67.0129 35.3433 67.3867 34.9844 67.6576 34.5275C67.9293 34.0706 68.0646 33.5554 68.0646 32.9813C68.0646 32.4071 67.9293 31.8911 67.6576 31.4341C67.3866 30.9771 67.0129 30.619 66.5371 30.3599V30.36Z" fill="black"/>
<path id="Vector_19" d="M76.6077 34.0387C76.4303 34.3536 76.1873 34.5984 75.8768 34.7748C75.5673 34.9502 75.218 35.0379 74.8307 35.0379C74.4435 35.0379 74.0951 34.9502 73.7847 34.7748C73.4749 34.5985 73.2311 34.3537 73.0544 34.0387C72.877 33.7236 72.7884 33.3712 72.7884 32.9813C72.7884 32.5913 72.877 32.238 73.0544 31.9238C73.231 31.6087 73.4748 31.3632 73.7847 31.1877C74.0951 31.0123 74.4435 30.9246 74.8307 30.9246C75.218 30.9246 75.5673 31.0123 75.8768 31.1877C76.1872 31.3632 76.4303 31.6087 76.6077 31.9238C76.7851 32.238 76.874 32.5913 76.874 32.9813C76.874 33.3712 76.7851 33.7236 76.6077 34.0387ZM76.4335 30.36C75.9576 30.1007 75.4231 29.9707 74.8307 29.9707C74.2383 29.9707 73.7045 30.1007 73.2287 30.36C72.7528 30.6191 72.379 30.9787 72.1074 31.438C71.8365 31.8983 71.7012 32.4126 71.7012 32.9813C71.7012 33.5498 71.8365 34.0635 72.1074 34.5235C72.3791 34.9837 72.7528 35.3434 73.2287 35.6026C73.7045 35.8617 74.2383 35.991 74.8307 35.991C75.4231 35.991 75.9576 35.8617 76.4335 35.6026C76.9093 35.3433 77.2831 34.9844 77.554 34.5275C77.8247 34.0706 77.961 33.5554 77.961 32.9813C77.961 32.4071 77.8247 31.8911 77.554 31.4341C77.283 30.9771 76.9093 30.619 76.4335 30.3599V30.36Z" fill="black"/>
<path id="Vector_20" d="M86.3762 34.0389C86.2019 34.3426 85.9526 34.5771 85.6295 34.7414C85.3056 34.9056 84.9303 34.9878 84.5043 34.9878H83.093V30.9741H84.5043C84.9303 30.9741 85.3056 31.057 85.6295 31.2214C85.9525 31.3858 86.2019 31.6202 86.3762 31.924C86.5504 32.2278 86.6375 32.5795 86.6375 32.9815C86.6375 33.3825 86.5504 33.7349 86.3762 34.0389V34.0389ZM86.206 30.4182C85.7245 30.1759 85.1734 30.0547 84.554 30.0547H82.0137V35.9072H84.554C85.1734 35.9072 85.7245 35.786 86.206 35.5434C86.6875 35.3011 87.0613 34.9582 87.3265 34.5156C87.5926 34.0723 87.7257 33.561 87.7257 32.9814C87.7257 32.4016 87.5926 31.8904 87.3265 31.4469C87.0612 31.0037 86.6875 30.6607 86.206 30.4182Z" fill="black"/>
<path id="Vector_21" d="M58.5044 23.6183C58.1545 23.8401 57.5821 23.9511 56.787 23.9511H52.5051V20.7811H56.787C57.5874 20.7811 58.1601 20.891 58.5044 21.1127C58.9053 21.3743 59.1056 21.7922 59.1056 22.3655C59.1056 22.9453 58.9054 23.3623 58.5044 23.6182V23.6183ZM52.5051 16.1534H56.9302C57.6018 16.1534 58.0786 16.2572 58.3604 16.4645C58.6423 16.6717 58.7842 17.0194 58.7842 17.5084C58.7842 17.9851 58.6344 18.3375 58.3352 18.5649C58.0699 18.7643 57.6018 18.8631 56.9302 18.8631H52.5051V16.1534ZM59.7311 19.7755C60.775 19.2754 61.2967 18.4573 61.2967 17.321C61.2967 16.3042 60.9555 15.5259 60.2729 14.9859C59.9292 14.7132 59.5285 14.5202 59.0715 14.4063C58.6147 14.293 58.0113 14.2363 57.2605 14.2363H49.4414V14.5092C49.645 14.5658 49.786 14.6392 49.8643 14.7301C49.9435 14.8209 49.983 14.955 49.983 15.1311V24.9733C49.983 25.1496 49.9435 25.2828 49.8643 25.3737C49.786 25.4646 49.645 25.5387 49.4414 25.5955V25.8681H57.3366C58.0819 25.8681 58.7066 25.8011 59.211 25.6681C59.7163 25.5349 60.1606 25.3172 60.5438 25.0166C61.3002 24.4137 61.6778 23.5818 61.6778 22.5189C61.6778 21.1839 61.0293 20.2693 59.7314 19.7756L59.7311 19.7755Z" fill="black"/>
<path id="Vector_22" d="M74.1864 19.1529C73.9495 19.1873 73.5434 19.204 72.9677 19.204H69.0746V16.1536H72.9677C73.5544 16.1536 73.9623 16.1688 74.1903 16.1999C74.4191 16.2318 74.6346 16.3037 74.8381 16.4176C75.2664 16.6504 75.4811 17.0706 75.4811 17.6782C75.4811 18.2868 75.2665 18.707 74.8381 18.9398C74.6402 19.0477 74.4231 19.1186 74.1863 19.1528L74.1864 19.1529ZM74.4643 25.5956V25.8685H78.6377V25.5956C78.3724 25.5782 78.1484 25.4887 77.9646 25.3268C77.7816 25.1649 77.4918 24.803 77.0974 24.2406L74.8549 21.0278C76.9479 20.7041 77.9947 19.5933 77.9947 17.6961C77.9947 17.1396 77.8903 16.6162 77.6811 16.1275C77.4611 15.6217 77.1285 15.2215 76.6826 14.9264C76.2991 14.6705 75.8493 14.4917 75.3331 14.3889C74.8167 14.287 74.1184 14.2358 73.2385 14.2358H66.0117V14.5085C66.2153 14.5652 66.356 14.6394 66.4346 14.7302C66.5138 14.8211 66.5533 14.9545 66.5533 15.1306V24.9817C66.5533 25.1524 66.5138 25.283 66.4346 25.3739C66.356 25.465 66.2153 25.5391 66.0117 25.5956V25.8685H69.6163V25.5956C69.4193 25.5446 69.2799 25.472 69.1975 25.378C69.116 25.2846 69.0747 25.1524 69.0747 24.9817V21.1218H72.1585L74.4978 24.5469C74.7629 24.9394 74.8954 25.1864 74.8954 25.2886C74.8954 25.4473 74.7511 25.5502 74.4644 25.5955L74.4643 25.5956Z" fill="black"/>
<path id="Vector_23" d="M85.688 16.1535H89.581C90.1669 16.1535 90.5747 16.1693 90.8035 16.2006C91.0316 16.2318 91.248 16.3043 91.4507 16.4176C91.8799 16.6504 92.0936 17.0713 92.0936 17.6791C92.0936 18.2868 91.8799 18.707 91.4507 18.9398C91.2534 19.0483 91.0366 19.1193 90.7988 19.1527C90.562 19.1871 90.1559 19.2045 89.581 19.2045H85.688V16.1535ZM88.7716 21.1216L91.1108 24.5475C91.3755 24.939 91.5077 25.1863 91.5077 25.2884C91.5077 25.4478 91.3642 25.55 91.0769 25.5954V25.868H95.2501V25.5954C94.9848 25.5786 94.7607 25.4894 94.5778 25.3272C94.394 25.1647 94.1051 24.8025 93.7098 24.2404L91.468 21.0275C93.561 20.7036 94.607 19.5937 94.607 17.6958C94.607 17.139 94.5027 16.6168 94.2944 16.1279C94.0742 15.6222 93.7417 15.2219 93.2957 14.9262C92.9116 14.671 92.462 14.4916 91.9457 14.3894C91.4301 14.2875 90.7315 14.2363 89.8518 14.2363H82.625V14.5083C82.8277 14.5658 82.9687 14.6392 83.0477 14.7301C83.1269 14.8209 83.1667 14.955 83.1667 15.1311V24.9822C83.1667 25.1529 83.127 25.2828 83.0477 25.3737C82.9687 25.4646 82.8278 25.5387 82.625 25.5955V25.8681H86.2296V25.5955C86.0317 25.5444 85.8922 25.4718 85.8108 25.3784C85.7291 25.2844 85.688 25.1529 85.688 24.9822V21.1216H88.7716Z" fill="black"/>
<path id="Vector_24" d="M103.198 21.3091L105.102 17.1656L106.975 21.3091H103.199H103.198ZM108.104 25.5955V25.8681H112.355V25.5955C112.118 25.55 111.93 25.4573 111.789 25.3187C111.647 25.179 111.484 24.9191 111.298 24.5386L106.897 15.5737C106.791 15.3639 106.737 15.1765 106.737 15.0115C106.737 14.773 106.903 14.6056 107.236 14.5083V14.2363H103.14V14.5083C103.467 14.6225 103.631 14.8098 103.631 15.0714C103.631 15.2412 103.563 15.4693 103.428 15.7531L99.1795 24.6919C99.0275 25.0219 98.8921 25.243 98.7732 25.3569C98.6554 25.4701 98.4827 25.5499 98.2578 25.5954V25.868H102.078V25.5954C101.701 25.4989 101.512 25.3257 101.512 25.0754C101.512 24.9445 101.566 24.766 101.673 24.5386L102.451 22.9022H107.7L108.494 24.5386C108.607 24.7716 108.663 24.9477 108.663 25.0673C108.663 25.3568 108.476 25.5332 108.103 25.5953L108.104 25.5955Z" fill="black"/>
<path id="Vector_25" d="M124.05 14.5086C124.254 14.5652 124.394 14.6393 124.473 14.7304C124.552 14.8212 124.592 14.9544 124.592 15.1308V20.9337C124.592 21.6044 124.556 22.1003 124.482 22.4209C124.408 22.7423 124.273 23.0102 124.076 23.2265C123.534 23.8054 122.606 24.0957 121.292 24.0957C119.983 24.0957 119.058 23.8054 118.516 23.2265C118.313 23.0102 118.174 22.7423 118.102 22.4209C118.028 22.1003 117.992 21.6044 117.992 20.9337V15.1308C117.992 14.9545 118.032 14.8197 118.112 14.7255C118.193 14.6324 118.333 14.5598 118.533 14.5087V14.2358H114.928V14.5087C115.131 14.5653 115.272 14.6394 115.352 14.7305C115.431 14.8213 115.469 14.9545 115.469 15.1309V21.6499C115.469 22.4682 115.576 23.1724 115.791 23.7633C116.011 24.3596 116.406 24.8319 116.976 25.1779C117.952 25.7745 119.359 26.0726 121.199 26.0726C123.743 26.0726 125.421 25.5215 126.234 24.4195C126.685 23.8055 126.911 22.8828 126.911 21.6499V15.1309C126.911 14.9546 126.95 14.8214 127.029 14.7305C127.108 14.6394 127.249 14.5653 127.452 14.5087V14.2358H124.05V14.5087L124.05 14.5086Z" fill="black"/>
<path id="Vector_26" d="M142.73 13.6906C142.674 13.8979 142.6 14.0408 142.51 14.1187C142.42 14.1969 142.29 14.236 142.121 14.236H131.898V14.5089C132.101 14.5655 132.242 14.6396 132.321 14.7304C132.401 14.8213 132.44 14.9547 132.44 15.1308V24.973C132.44 25.1493 132.401 25.2831 132.321 25.3742C132.242 25.4651 132.101 25.5384 131.898 25.5957V25.8677H135.503V25.5957C135.306 25.5439 135.166 25.4721 135.084 25.3781C135.003 25.284 134.961 25.1493 134.961 24.9729V20.7808H139.641C139.816 20.7808 139.949 20.8213 140.039 20.902C140.129 20.9824 140.202 21.1235 140.259 21.3263H140.53V18.386H140.259C140.202 18.5876 140.129 18.7289 140.039 18.8094C139.949 18.8907 139.816 18.9314 139.641 18.9314H134.961V16.153H142.121C142.29 16.153 142.42 16.1922 142.51 16.2701C142.6 16.3483 142.674 16.4912 142.73 16.6985H143.001V13.6904H142.73L142.73 13.6906Z" fill="black"/>
<path id="Vector_27" d="M40.7307 38.1599V22.3009L34.9062 18.915V41.5459L40.7307 38.1599Z" fill="black"/>
<path id="Vector_28" d="M26.1797 46.6197L32.0041 43.2329V17.227L26.1797 13.8403V46.6197Z" fill="black"/>
<path id="Vector_29" d="M20.3661 7.08533L30.5752 13.0217L40.7319 18.9258V11.8389L40.0349 11.4355L34.8251 8.40661L25.4278 2.9416L20.3661 0L0.697008 11.4355L0 11.8389V18.9258L10.1568 13.0217L20.3661 7.08533Z" fill="black"/>
<path id="Vector_30" d="M8.72656 43.2335L14.5508 46.6202V13.8408L8.72656 17.2275V43.2335Z" fill="black"/>
<path id="Vector_31" d="M23.2776 12.1533L20.3648 10.4604L17.4531 12.1533V48.307L20.3648 49.9999L23.2776 48.307V12.1533Z" fill="black"/>
<path id="Vector_32" d="M5.82422 18.9146L0 22.3012V38.1596L5.82422 41.5463V18.9146Z" fill="black"/>
</g>
</g>
</g>
<defs>
<clipPath id="clip0_252_426">
<rect width="143" height="50" fill="white"/>
</clipPath>
</defs>
</svg>
